<svg width="20" height="22" viewBox="0 0 20 22" fill="none" xmlns="http://www.w3.org/2000/svg">
<g clip-path="url(#clip0_1_2237)">
<path d="M16.6667 10.9871L20 5.49355H13.3333L10 0L6.66667 5.49355H0L3.33333 10.9871L0 16.4807H6.66667L10 22L13.3333 16.4807H20L16.6667 10.9871Z" fill="#FFC33D"/>
<path d="M10 0L6.66667 5.49355H0L10 10.9871V0Z" fill="#FFE384"/>
<path d="M20 5.49355H13.3333L10 0V10.9871L20 5.49355Z" fill="#FFC33D"/>
<path d="M20 16.4807L16.6667 10.9871L20 5.49356L10 10.9871L20 16.4807Z" fill="#F1A327"/>
<path d="M10 22L13.3333 16.4806H20L10 10.9871V22Z" fill="#EF7429"/>
<path d="M0 16.4806H6.66667L10 22V10.9871L0 16.4806Z" fill="#F1A327"/>
<path d="M0 5.49356L3.33333 10.9871L0 16.4807L10 10.9871L0 5.49356Z" fill="#FFC33D"/>
<path d="M15.0137 8.25323H11.6803L10.0001 5.49356L8.347 8.25323H5.01367L6.66679 10.9871L5.01367 13.7468H8.347L10.0001 16.4807L11.6803 13.7468H15.0137L13.3335 10.9871L14.3904 9.25909L15.0137 8.25323Z" fill="#FFD569"/>
</g>
<defs>
<clipPath id="clip0_1_2237">
<rect width="20" height="22" fill="white"/>
</clipPath>
</defs>
</svg>
