<svg width="48" height="48" viewBox="0 0 48 48" fill="none" xmlns="http://www.w3.org/2000/svg">
<g clip-path="url(#clip0_1_1288)">
<path d="M42.986 5.01399C38.4719 0.499837 31.9584 0 23.9922 0C16.026 0 9.51253 0.515457 4.98275 5.02961C0.452978 9.55939 0 16.0573 0 24.0234C0 31.974 0.452978 38.4875 4.98275 43.0172C9.51253 47.547 16.026 48 23.9922 48C31.9584 48 38.4719 47.547 43.0016 43.0172C47.5314 38.4875 47.9844 31.9896 47.9844 24.0234C48 16.0573 47.5314 9.52815 42.986 5.01399Z" fill="#FF6900"/>
<path d="M22.2272 32.8953C22.2272 33.0515 22.0867 33.1921 21.9305 33.1921H17.838C17.6662 33.1921 17.5413 33.0515 17.5413 32.8953V22.1801C17.5413 22.0239 17.6818 21.8833 17.838 21.8833H21.9305C22.1023 21.8833 22.2272 22.0239 22.2272 22.1801V32.8953Z" fill="white"/>
<path d="M30.2402 32.8955C30.2402 33.0517 30.0996 33.1923 29.9434 33.1923H26.0541C25.8822 33.1923 25.7573 33.0517 25.7573 32.8955V32.8486V23.6485C25.7573 22.0396 25.6636 20.3839 24.8357 19.5405C24.1172 18.8219 22.7895 18.6657 21.3993 18.6189H14.3079C14.1361 18.6189 14.0111 18.7595 14.0111 18.9157V31.9114V32.8799C14.0111 33.0361 13.8705 33.1766 13.7143 33.1766H9.80935C9.63753 33.1766 9.51257 33.0361 9.51257 32.8799V15.1044C9.51257 14.9482 9.65315 14.8076 9.80935 14.8076H21.0557C23.9922 14.8076 27.0694 14.9482 28.5845 16.4633C30.0996 17.9941 30.2402 21.0556 30.2402 23.9921V32.8955Z" fill="white"/>
<path d="M38.2688 32.8955C38.2688 33.0517 38.1282 33.1923 37.972 33.1923H34.067C33.8952 33.1923 33.7703 33.0517 33.7703 32.8955V15.1044C33.7703 14.9482 33.9108 14.8076 34.067 14.8076H37.972C38.1438 14.8076 38.2688 14.9326 38.2688 15.1044V32.8955Z" fill="white"/>
</g>
<defs>
<clipPath id="clip0_1_1288">
<rect width="48" height="48" fill="white"/>
</clipPath>
</defs>
</svg>
