<svg width="144" height="67" viewBox="0 0 144 67" fill="none" xmlns="http://www.w3.org/2000/svg">
<g clip-path="url(#clip0_1_1268)">
<path d="M77.338 9.62451L75.7035 17.1512L74.938 20.6061H70.0759L70.7793 17.4803H62.0276L59.0483 31.2175H66.2276L64.9862 36.914H57.8069C51.5586 36.914 50.338 33.2946 51.538 27.7626C52.2828 24.3283 53.8345 17.1718 53.8345 17.1718L55.469 9.64508H77.338V9.62451Z" fill="#009981"/>
<path d="M73.9034 25.9324L73.2 29.0582H81.9517L84.931 15.321H77.7517L78.9931 9.62451H86.1724C92.4207 9.62451 93.662 13.2439 92.4414 18.7758C91.6965 22.2101 90.1448 29.3667 90.1448 29.3667L88.5103 36.8934H80.2345H75.7448H66.6207L68.2551 29.3667L69.0207 25.9118H73.9034V25.9324Z" fill="#00483D"/>
<path d="M15.269 57.1698V48.0391H17.2345V51.5968H20.0276V48.0391H21.9931V57.1698H20.0276V53.571H17.2345V57.1698H15.269Z" fill="#00483D"/>
<path d="M26.4414 54.5791C26.4414 54.9904 26.669 55.196 27.1035 55.196H28.3035C28.5311 55.196 28.7173 55.1549 28.8 55.0932C28.9035 55.0109 28.9449 54.867 28.9449 54.6408V50.6307C28.9449 50.4044 28.9035 50.2399 28.8 50.1371C28.6966 50.0548 28.5311 49.9931 28.2828 49.9931H27.0621C26.8138 49.9931 26.6483 50.0343 26.5655 50.1165C26.4828 50.1988 26.4414 50.3633 26.4414 50.6101V54.5791ZM24.4759 50.0137C24.4759 49.8698 24.4966 49.7052 24.5173 49.5407C24.6414 49.006 24.8483 48.6153 25.2 48.3891C25.5104 48.1629 25.9655 48.0601 26.5449 48.0601H28.8828C30.2483 48.0601 30.9311 48.7181 30.9311 50.0343V55.2166C30.9311 56.5327 30.2483 57.1908 28.8621 57.1908H26.5449C25.9449 57.1908 25.4897 57.088 25.2 56.8823C24.869 56.6561 24.6414 56.2448 24.538 55.6896C24.4966 55.5045 24.4759 55.34 24.4759 55.2166V50.0137Z" fill="#00483D"/>
<path d="M37.7379 53.345L36.8069 50.4042L36.1241 53.345H37.7379ZM32.8552 57.17L35.4 49.1704C35.669 48.3683 36.1862 47.957 36.9517 47.957C37.7172 47.957 38.2345 48.3683 38.5034 49.1909L41.0276 57.17H38.9586L38.3379 55.1958H35.5448L34.9241 57.17H32.8552Z" fill="#00483D"/>
<path d="M43.1379 57.1702V49.8491C43.1379 49.3144 43.2828 48.8826 43.5517 48.5124C43.8414 48.1217 44.2552 47.916 44.7724 47.916C45 47.916 45.2069 47.9571 45.4345 48.0394C45.9724 48.2245 46.3241 48.6975 46.531 49.4172L47.9173 54.7024V48.0188H49.8V55.5661C49.8 56.0391 49.6552 56.4298 49.3448 56.7589C49.0345 57.0879 48.6621 57.2524 48.2069 57.273C47.3379 57.2935 46.7586 56.7794 46.469 55.7306L45.0621 50.4866V57.1702H43.1379Z" fill="#00483D"/>
<path d="M52.2414 54.5997V50.3016C52.2414 49.4585 52.4069 48.8827 52.7379 48.5536C53.069 48.2246 53.6483 48.0601 54.4966 48.0601H58.2207V50.0343H54.5793C54.3724 50.0548 54.2483 50.1782 54.2069 50.4044V54.8464C54.269 55.0521 54.3931 55.1755 54.6207 55.2166H56.1931C56.5862 55.2166 56.7931 55.0726 56.8138 54.8053V51.9468H58.7793V54.867C58.7793 55.4428 58.7173 55.8541 58.6138 56.1009C58.2828 56.8206 57.6621 57.1908 56.7724 57.1908H54.4966C53.1517 57.1908 52.4069 56.6767 52.2621 55.6485C52.2621 55.4634 52.2414 55.1138 52.2414 54.5997Z" fill="#00483D"/>
<path d="M61.2621 57.1698V48.0391H63.2276V51.5968H66.0207V48.0391H67.9862V57.1698H66.0207V53.571H63.2276V57.1698H61.2621Z" fill="#00483D"/>
<path d="M75 53.345L74.069 50.4042L73.3862 53.345H75ZM70.1172 57.17L72.6621 49.1704C72.931 48.3683 73.4483 47.957 74.2138 47.957C74.9793 47.957 75.4966 48.3683 75.7655 49.1909L78.2897 57.17H76.2207L75.6 55.1958H72.8069L72.1862 57.17H70.1172Z" fill="#00483D"/>
<path d="M80.4 57.1702V49.6435C80.4 49.1293 80.5655 48.718 80.8759 48.389C81.1862 48.0805 81.6 47.916 82.1173 47.916C82.2828 47.916 82.469 47.9366 82.6345 47.9777C83.2552 48.1011 83.6483 48.4918 83.7931 49.1293L84.9517 54.3939L86.2345 49.1293C86.4 48.4918 86.7724 48.1217 87.3724 47.9777C87.538 47.9366 87.7242 47.916 87.9104 47.916C88.4276 47.916 88.8414 48.0805 89.1517 48.389C89.4621 48.6975 89.6276 49.1293 89.6276 49.6435V57.1702H87.7449V50.6306L86.3173 56.1419C86.2759 56.327 86.2138 56.5121 86.1104 56.6972C85.8828 57.1496 85.5311 57.3758 85.0138 57.3758C84.3517 57.3758 83.9173 56.9645 83.7104 56.1419L82.3035 50.6306V57.1702H80.4Z" fill="#009981"/>
<path d="M94.0552 54.5791C94.0552 54.9904 94.2828 55.196 94.7172 55.196H95.9172C96.1448 55.196 96.331 55.1549 96.4138 55.0932C96.5172 55.0109 96.5586 54.867 96.5586 54.6408V50.6307C96.5586 50.4044 96.5172 50.2399 96.4138 50.1371C96.3103 50.0548 96.1448 49.9931 95.8966 49.9931H94.6759C94.4276 49.9931 94.2621 50.0343 94.1793 50.1165C94.0966 50.1988 94.0552 50.3633 94.0552 50.6101V54.5791ZM92.0897 50.0137C92.0897 49.8698 92.1103 49.7052 92.1517 49.5407C92.2552 49.006 92.4828 48.6153 92.8345 48.3891C93.1448 48.1629 93.6 48.0601 94.1793 48.0601H96.5172C97.8828 48.0601 98.5655 48.7181 98.5655 50.0343V55.2166C98.5655 56.5327 97.8828 57.1908 96.4966 57.1908H94.1379C93.5379 57.1908 93.0828 57.088 92.7931 56.8823C92.4621 56.6561 92.2345 56.2448 92.131 55.6896C92.0897 55.5045 92.069 55.34 92.069 55.2166V50.0137H92.0897Z" fill="#009981"/>
<path d="M102.972 55.2162H105.145C105.434 55.175 105.6 55.0105 105.6 54.702V54.1057C105.6 53.7972 105.434 53.6327 105.124 53.571H102.993C102.993 54.6609 102.993 55.1956 102.972 55.2162ZM102.972 51.5968H105.145C105.455 51.5968 105.6 51.4322 105.6 51.1032V50.5068C105.6 50.3834 105.559 50.2601 105.476 50.1572C105.393 50.0544 105.29 50.0133 105.145 50.0133H102.972V51.5968ZM101.007 48.0391H105.766C106.448 48.0391 106.945 48.2447 107.276 48.656C107.503 48.9439 107.607 49.4169 107.607 50.0955V50.8359C107.607 51.7202 107.338 52.296 106.8 52.5633C107.255 52.769 107.524 53.2008 107.586 53.8383C107.607 54.0028 107.607 54.1057 107.607 54.1879V55.0928C107.607 55.2162 107.607 55.3396 107.586 55.4835C107.441 56.594 106.821 57.1493 105.683 57.1493H101.028V48.0391H101.007Z" fill="#009981"/>
<path d="M112.014 48.0391H110.048V57.1698H112.014V48.0391Z" fill="#009981"/>
<path d="M114.497 54.9493V48.0601H116.462V54.8053C116.462 55.0932 116.628 55.2166 116.959 55.2166H120.455L120.435 57.1908H116.772C116.648 57.1908 116.524 57.1908 116.421 57.1702C115.717 57.1086 115.2 56.9029 114.91 56.5533C114.641 56.1831 114.497 55.6485 114.497 54.9493Z" fill="#009981"/>
<path d="M122.731 55.2573V50.0133C122.731 49.9105 122.752 49.7665 122.772 49.602C122.938 48.5532 123.559 48.0391 124.655 48.0391H128.731V50.0133H125.172C125.152 50.0133 125.11 50.0338 125.048 50.0544C124.821 50.1161 124.717 50.3012 124.717 50.5891V51.5968H128.752V53.571H124.717V54.5787C124.717 54.9488 124.883 55.1545 125.235 55.1956H128.752V57.1698H124.945C123.455 57.1698 122.731 56.5323 122.731 55.2573Z" fill="#009981"/>
</g>
<defs>
<clipPath id="clip0_1_1268">
<rect width="144" height="67" fill="white"/>
</clipPath>
</defs>
</svg>
