<svg width="21" height="24" viewBox="0 0 21 24" fill="none" xmlns="http://www.w3.org/2000/svg">
<path d="M8.63148 8.937V13.059C8.11235 12.9221 7.56911 12.9034 7.0418 13.0044C6.5145 13.1054 6.01657 13.3234 5.58473 13.6424C5.15288 13.9613 4.79813 14.3732 4.54661 14.8475C4.2951 15.3218 4.15324 15.8466 4.13148 16.383C4.10175 16.8449 4.17125 17.3078 4.33531 17.7405C4.49938 18.1733 4.7542 18.5659 5.08266 18.892C5.41111 19.2181 5.80557 19.4701 6.23952 19.631C6.67346 19.7919 7.13684 19.8581 7.59848 19.825C8.0648 19.8608 8.53332 19.7949 8.97168 19.6319C9.41004 19.4689 9.80779 19.2126 10.1374 18.8809C10.4671 18.5491 10.7208 18.1498 10.881 17.7104C11.0413 17.271 11.1042 16.8021 11.0655 16.336V0H15.1425C15.8355 4.315 17.9935 5.316 20.8825 5.778V9.913C18.8804 9.74881 16.9491 9.09645 15.2575 8.013V16.18C15.2575 19.88 13.0675 24 7.63048 24C6.61045 23.9955 5.60156 23.7875 4.66297 23.3881C3.72437 22.9886 2.87496 22.4059 2.16451 21.6739C1.45407 20.942 0.896888 20.0755 0.525633 19.1254C0.154378 18.1754 -0.0234803 17.1607 0.00248318 16.141C0.0347896 15.0794 0.291738 14.0366 0.756392 13.0815C1.22105 12.1265 1.88285 11.2807 2.69819 10.6C3.51352 9.9193 4.46387 9.41915 5.48658 9.1325C6.50929 8.84586 7.58114 8.77923 8.63148 8.937Z" fill="#B0B0B0"/>
</svg>
