<svg width="24" height="17" viewBox="0 0 24 17" fill="none" xmlns="http://www.w3.org/2000/svg">
<path d="M23.8 3.6C23.8 3.6 23.6 1.9 22.8 1.2C21.9 0.2 20.9 0.2 20.4 0.2C17 4.47035e-08 12 0 12 0C12 0 7 4.47035e-08 3.6 0.2C3.1 0.3 2.1 0.3 1.2 1.2C0.5 1.9 0.2 3.6 0.2 3.6C0.2 3.6 0 5.5 0 7.5V9.3C0 11.2 0.2 13.2 0.2 13.2C0.2 13.2 0.4 14.9 1.2 15.6C2.1 16.6 3.3 16.5 3.8 16.6C5.7 16.8 12 16.8 12 16.8C12 16.8 17 16.8 20.4 16.5C20.9 16.4 21.9 16.4 22.8 15.5C23.5 14.8 23.8 13.1 23.8 13.1C23.8 13.1 24 11.2 24 9.2V7.4C24 5.5 23.8 3.6 23.8 3.6ZM9.5 11.5V4.8L16 8.2L9.5 11.5Z" fill="#B0B0B0"/>
</svg>
